<svg width="24" height="24" viewBox="0 0 24 24" fill="none" xmlns="http://www.w3.org/2000/svg">
<g clip-path="url(#clip0_2913_332)">
<path d="M0.666576 15.3977C2.12651 20.2656 6.64184 23.8154 11.985 23.8154C18.5104 23.8154 23.8004 18.5254 23.8004 12C23.8004 5.4746 18.5104 0.184631 11.985 0.184631C5.72356 0.184631 0.599745 5.05589 0.195068 11.215C0.960853 12.4988 1.25808 13.2931 0.665838 15.3977H0.666576Z" fill="url(#paint0_linear_2913_332)"/>
<path d="M11.3762 9.04061L11.3773 9.09895L8.48618 13.2989C8.018 13.2775 7.54834 13.3599 7.10231 13.5434C6.90814 13.6223 6.72277 13.7213 6.5492 13.8388L0.200276 11.222C0.200276 11.222 0.0533224 13.639 0.665507 15.4401L5.15388 17.2922C5.37541 18.2994 6.06957 19.1826 7.08938 19.6073C7.8917 19.9406 8.79353 19.9419 9.59681 19.6109C10.4001 19.2798 11.0391 18.6435 11.3736 17.8416C11.552 17.4145 11.6381 16.9544 11.6261 16.4917L15.7589 13.536L15.8605 13.5378C18.3362 13.5378 20.3485 11.5196 20.3485 9.04061C20.3485 6.56159 18.3398 4.55076 15.8605 4.54559C13.3859 4.54559 11.3725 6.56159 11.3725 9.04061H11.3762ZM10.682 17.5514C10.1451 18.8437 8.66378 19.4518 7.37628 18.9153C6.80493 18.6752 6.34183 18.2334 6.07511 17.674L7.53615 18.2795C7.76186 18.3735 8.00386 18.422 8.24833 18.4224C8.49281 18.4228 8.73497 18.375 8.96097 18.2818C9.18697 18.1885 9.39238 18.0517 9.56547 17.879C9.73856 17.7064 9.87594 17.5013 9.96975 17.2756C10.1597 16.8194 10.1608 16.3065 9.97288 15.8495C9.78491 15.3925 9.42323 15.0288 8.96729 14.8383L7.45345 14.2124C8.03609 13.9909 8.69849 13.9835 9.31806 14.2409C9.94575 14.5004 10.4258 14.9893 10.6827 15.6144C10.9397 16.2395 10.9382 16.9289 10.679 17.5514M15.8645 12.0369C15.0712 12.0348 14.3111 11.7183 13.7507 11.1568C13.1902 10.5954 12.8752 9.83465 12.8745 9.04135C12.8754 8.24817 13.1905 7.48766 13.7509 6.92635C14.3113 6.36503 15.0713 6.04867 15.8645 6.04652C16.6578 6.04847 17.418 6.36475 17.9786 6.92609C18.5392 7.48742 18.8544 8.24804 18.8553 9.04135C18.8546 9.83478 18.5394 10.5956 17.9789 11.1571C17.4183 11.7186 16.658 12.035 15.8645 12.0369ZM13.624 9.03655C13.6235 8.4405 13.8597 7.86864 14.2807 7.44665C14.7016 7.02466 15.2729 6.78706 15.869 6.78609C17.1077 6.78609 18.1154 7.79409 18.1154 9.03655C18.1156 9.63273 17.8792 10.2046 17.4579 10.6265C17.0367 11.0484 16.4651 11.2857 15.869 11.2863C15.273 11.2854 14.7017 11.0479 14.2807 10.6261C13.8597 10.2043 13.6237 9.63253 13.624 9.03655Z" fill="white"/>
</g>
<defs>
<linearGradient id="paint0_linear_2913_332" x1="1180.46" y1="0.184631" x2="1180.46" y2="2363.26" gradientUnits="userSpaceOnUse">
<stop stop-color="#111D2E"/>
<stop offset="0.212" stop-color="#051839"/>
<stop offset="0.407" stop-color="#0A1B48"/>
<stop offset="0.581" stop-color="#132E62"/>
<stop offset="0.738" stop-color="#144B7E"/>
<stop offset="0.873" stop-color="#136497"/>
<stop offset="1" stop-color="#1387B8"/>
</linearGradient>
<clipPath id="clip0_2913_332">
<rect width="24" height="24" fill="white"/>
</clipPath>
</defs>
</svg>
